<svg width="512" height="512" viewBox="0 0 512 512" fill="none" xmlns="http://www.w3.org/2000/svg">
  <rect width="512" height="512" rx="120" fill="#0F172A"/>
  <rect x="104" y="104" width="304" height="304" rx="72" fill="#F97316" fill-opacity="0.18"/>
  <path d="M168 168H232V232H168V168Z" fill="#FDBA74"/>
  <path d="M280 168H344V232H280V168Z" fill="#FDBA74"/>
  <path d="M168 280H232V344H168V280Z" fill="#FDBA74"/>
  <path d="M280 280H344V344H280V280Z" fill="#FDBA74"/>
  <path d="M256 144C194.92 144 144 194.92 144 256C144 317.08 194.92 368 256 368C317.08 368 368 317.08 368 256C368 194.92 317.08 144 256 144ZM256 328C216.24 328 184 295.76 184 256C184 216.24 216.24 184 256 184C295.76 184 328 216.24 328 256C328 295.76 295.76 328 256 328Z" fill="#FFFFFF"/>
</svg>
